<svg xmlns="http://www.w3.org/2000/svg" width="1200" height="420" viewBox="0 0 1200 420" role="img" aria-labelledby="title desc">
  <title id="title">get-md</title>
  <desc id="desc">CONVERTER</desc>
  <defs>
    <radialGradient id="bg" cx="0.32" cy="0.42" r="0.95" gradientUnits="userSpaceOnUse">
      <stop offset="0" stop-color="#15101F"/>
      <stop offset="0.55" stop-color="#0C0F16"/>
      <stop offset="1" stop-color="#0B0E11"/>
    </radialGradient>
    <linearGradient id="acc" x1="0" y1="0" x2="1" y2="0">
      <stop offset="0" stop-color="#7C5CFF"/>
      <stop offset="1" stop-color="#9B7BFF"/>
    </linearGradient>
    <linearGradient id="panel" x1="0" y1="0" x2="0" y2="1">
      <stop offset="0" stop-color="#161B26"/>
      <stop offset="1" stop-color="#10131B"/>
    </linearGradient>
  </defs>
  <rect width="1200" height="420" fill="url(#bg)"/>
  <rect x="598" y="56" width="1" height="312" fill="#222838"/>
  <text x="64" y="74" font-family="-apple-system,BlinkMacSystemFont,Segoe UI,sans-serif" font-size="12" letter-spacing="3" fill="#7C5CFF">CONVERTER</text>
  <text x="62" y="128" font-family="-apple-system,BlinkMacSystemFont,Segoe UI,sans-serif" font-size="50" font-weight="700" fill="#F4F6FB">get-md</text>
  <rect x="64" y="146" width="52" height="4" rx="2" fill="url(#acc)"/>
<text x="64" y="176" font-family="-apple-system,BlinkMacSystemFont,Segoe UI,sans-serif" font-size="17" fill="#C7CEDB">Fast HTML to Markdown</text>
<text x="64" y="204" font-family="-apple-system,BlinkMacSystemFont,Segoe UI,sans-serif" font-size="17" fill="#C7CEDB">converter for LLM use</text>
<text x="64" y="232" font-family="-apple-system,BlinkMacSystemFont,Segoe UI,sans-serif" font-size="17" fill="#C7CEDB">clean, structured output</text>
<defs><marker id="ah3" markerWidth="10" markerHeight="10" refX="7" refY="3" orient="auto"><path d="M0 0 L7 3 L0 6 Z" fill="#7C5CFF"/></marker></defs><rect x="640" y="110" width="150" height="200" rx="12" fill="url(#panel)" stroke="#2A3350"/><text x="715" y="220" text-anchor="middle" font-family="ui-monospace,SFMono-Regular,Menlo,monospace" font-size="40" fill="#7C5CFF">&lt;/&gt;</text><path d="M800 210 L880 210" stroke="#7C5CFF" stroke-width="3" marker-end="url(#ah3)"/><rect x="900" y="110" width="240" height="200" rx="12" fill="url(#panel)" stroke="#2A3350"/><rect x="922" y="134" width="40" height="12" rx="3" fill="url(#acc)"/><rect x="922" y="160" width="150" height="10" rx="5" fill="#1C2230"/>
<rect x="922" y="196" width="140" height="10" rx="5" fill="#1C2230"/>
<rect x="922" y="232" width="130" height="10" rx="5" fill="#1C2230"/>
<rect x="922" y="268" width="120" height="10" rx="5" fill="#1C2230"/>

</svg>